<svg width="49" height="40" viewBox="0 0 49 40" fill="none" xmlns="http://www.w3.org/2000/svg">
<path d="M5.36589 21.1575H43.6857C44.4893 21.1575 45.1425 21.843 45.0725 22.6484C44.2326 32.2381 35.3545 39.7841 24.5271 39.7841C13.6997 39.7841 4.82154 32.2381 3.98168 22.6484C3.9091 21.843 4.56232 21.1575 5.36589 21.1575Z" fill="#FF6633"/>
<path d="M31.4435 6.80832C31.8712 6.80832 32.2963 6.61544 32.5737 6.2453C33.9734 4.39463 36.633 3.24252 39.5128 3.24252C42.3927 3.24252 45.0523 4.39202 46.452 6.2453C46.9264 6.87349 47.8181 6.99339 48.4402 6.51639C49.0649 6.03938 49.1842 5.14272 48.7098 4.51714C46.7553 1.9314 43.3181 0.388306 39.5128 0.388306C35.7076 0.388306 32.2704 1.9314 30.3133 4.51714C29.8389 5.14532 29.9608 6.03938 30.5829 6.51639C30.8421 6.71449 31.1428 6.80832 31.4435 6.80832Z" fill="#414141"/>
<path d="M1.47374 6.80832C1.90145 6.80832 2.32656 6.61544 2.60392 6.2453C4.00369 4.39463 6.66323 3.24252 9.54312 3.24252C12.423 3.24252 15.0825 4.39202 16.4823 6.2453C16.9567 6.87349 17.8484 6.99339 18.4705 6.51639C19.0952 6.03938 19.2144 5.14272 18.7401 4.51714C16.7856 1.9314 13.3484 0.388306 9.54312 0.388306C5.73783 0.388306 2.30064 1.9314 0.343567 4.51714C-0.130798 5.14532 -0.00896454 6.03938 0.613152 6.51639C0.872368 6.71449 1.17305 6.80832 1.47374 6.80832Z" fill="#414141"/>
</svg>
